<svg xmlns="http://www.w3.org/2000/svg" xmlns:xlink="http://www.w3.org/1999/xlink" width="1080" zoomAndPan="magnify" viewBox="0 0 810 809.999993" height="1080" preserveAspectRatio="xMidYMid meet" version="1.0"><defs><clipPath id="f5836de22b"><path d="M 168.730469 314.703125 L 308 314.703125 L 308 760.253906 L 168.730469 760.253906 Z M 168.730469 314.703125 " clip-rule="nonzero"/></clipPath><clipPath id="363299867d"><path d="M 238.507812 314.703125 C 257.011719 314.703125 274.761719 322.054688 287.847656 335.140625 C 300.929688 348.226562 308.28125 365.976562 308.28125 384.480469 L 308.28125 690.480469 C 308.28125 708.984375 300.929688 726.730469 287.847656 739.816406 C 274.761719 752.902344 257.011719 760.253906 238.507812 760.253906 C 220 760.253906 202.253906 752.902344 189.167969 739.816406 C 176.082031 726.730469 168.730469 708.984375 168.730469 690.480469 L 168.730469 384.480469 C 168.730469 365.976562 176.082031 348.226562 189.167969 335.140625 C 202.253906 322.054688 220 314.703125 238.507812 314.703125 " clip-rule="nonzero"/></clipPath><clipPath id="4643e03fd7"><path d="M 168.730469 49.746094 L 308.890625 49.746094 L 308.890625 290 L 168.730469 290 Z M 168.730469 49.746094 " clip-rule="nonzero"/></clipPath><clipPath id="e0eecb721c"><path d="M 238.507812 49.746094 C 257.011719 49.746094 274.761719 57.097656 287.847656 70.183594 C 300.929688 83.269531 308.28125 101.015625 308.28125 119.523438 L 308.28125 219.839844 C 308.28125 238.347656 300.929688 256.09375 287.847656 269.179688 C 274.761719 282.265625 257.011719 289.617188 238.507812 289.617188 C 220 289.617188 202.253906 282.265625 189.167969 269.179688 C 176.082031 256.09375 168.730469 238.347656 168.730469 219.839844 L 168.730469 119.523438 C 168.730469 101.015625 176.082031 83.269531 189.167969 70.183594 C 202.253906 57.097656 220 49.746094 238.507812 49.746094 " clip-rule="nonzero"/></clipPath><clipPath id="85db6717aa"><path d="M 501.71875 314.703125 L 641 314.703125 L 641 760.253906 L 501.71875 760.253906 Z M 501.71875 314.703125 " clip-rule="nonzero"/></clipPath><clipPath id="a90c62e761"><path d="M 571.492188 314.703125 C 590 314.703125 607.746094 322.054688 620.832031 335.140625 C 633.917969 348.226562 641.269531 365.976562 641.269531 384.480469 L 641.269531 690.480469 C 641.269531 708.984375 633.917969 726.730469 620.832031 739.816406 C 607.746094 752.902344 590 760.253906 571.492188 760.253906 C 552.988281 760.253906 535.238281 752.902344 522.152344 739.816406 C 509.070312 726.730469 501.71875 708.984375 501.71875 690.480469 L 501.71875 384.480469 C 501.71875 365.976562 509.070312 348.226562 522.152344 335.140625 C 535.238281 322.054688 552.988281 314.703125 571.492188 314.703125 " clip-rule="nonzero"/></clipPath><clipPath id="416513cf0d"><path d="M 335.222656 314.703125 L 475 314.703125 L 475 470 L 335.222656 470 Z M 335.222656 314.703125 " clip-rule="nonzero"/></clipPath><clipPath id="564172d4ee"><path d="M 405 314.703125 C 423.507812 314.703125 441.253906 322.054688 454.339844 335.140625 C 467.425781 348.226562 474.777344 365.976562 474.777344 384.480469 L 474.777344 399.957031 C 474.777344 418.464844 467.425781 436.210938 454.339844 449.296875 C 441.253906 462.382812 423.507812 469.734375 405 469.734375 C 386.492188 469.734375 368.746094 462.382812 355.660156 449.296875 C 342.574219 436.210938 335.222656 418.464844 335.222656 399.957031 L 335.222656 384.480469 C 335.222656 365.976562 342.574219 348.226562 355.660156 335.140625 C 368.746094 322.054688 386.492188 314.703125 405 314.703125 " clip-rule="nonzero"/></clipPath></defs><g clip-path="url(#f5836de22b)"><g clip-path="url(#363299867d)"><path fill="#1b8663" d="M 168.730469 314.703125 L 307.964844 314.703125 L 307.964844 760.253906 L 168.730469 760.253906 Z M 168.730469 314.703125 " fill-opacity="1" fill-rule="nonzero"/></g></g><g clip-path="url(#4643e03fd7)"><g clip-path="url(#e0eecb721c)"><path fill="#64cfac" d="M 168.730469 49.746094 L 308.253906 49.746094 L 308.253906 289.476562 L 168.730469 289.476562 Z M 168.730469 49.746094 " fill-opacity="1" fill-rule="nonzero"/></g></g><g clip-path="url(#85db6717aa)"><g clip-path="url(#a90c62e761)"><path fill="#64cfac" d="M 501.71875 314.703125 L 640.953125 314.703125 L 640.953125 760.253906 L 501.71875 760.253906 Z M 501.71875 314.703125 " fill-opacity="1" fill-rule="nonzero"/></g></g><g clip-path="url(#416513cf0d)"><g clip-path="url(#564172d4ee)"><path fill="#98ebd0" d="M 335.222656 314.703125 L 474.75 314.703125 L 474.75 469.453125 L 335.222656 469.453125 Z M 335.222656 314.703125 " fill-opacity="1" fill-rule="nonzero"/></g></g></svg>