<svg xmlns="http://www.w3.org/2000/svg" xmlns:xlink="http://www.w3.org/1999/xlink" width="720" zoomAndPan="magnify" viewBox="0 0 540 809.999993" height="1080" preserveAspectRatio="xMidYMid meet" version="1.0"><defs><clipPath id="63d0295e97"><path d="M 0 302.0625 L 159.261719 302.0625 L 159.261719 810 L 0 810 Z M 0 302.0625 " clip-rule="nonzero"/></clipPath><clipPath id="287bd05804"><path d="M 75 302.0625 L 84.09375 302.0625 C 103.984375 302.0625 123.0625 309.964844 137.128906 324.027344 C 151.191406 338.09375 159.09375 357.171875 159.09375 377.0625 L 159.09375 735 C 159.09375 754.890625 151.191406 773.96875 137.128906 788.03125 C 123.0625 802.097656 103.984375 810 84.09375 810 L 75 810 C 55.109375 810 36.03125 802.097656 21.96875 788.03125 C 7.902344 773.96875 0 754.890625 0 735 L 0 377.0625 C 0 357.171875 7.902344 338.09375 21.96875 324.027344 C 36.03125 309.964844 55.109375 302.0625 75 302.0625 " clip-rule="nonzero"/></clipPath><clipPath id="d93a3f31e1"><path d="M 0 0 L 159.785156 0 L 159.785156 274 L 0 274 Z M 0 0 " clip-rule="nonzero"/></clipPath><clipPath id="080ab6e0d5"><path d="M 75 0 L 84.09375 0 C 103.984375 0 123.0625 7.902344 137.128906 21.96875 C 151.191406 36.03125 159.09375 55.109375 159.09375 75 L 159.09375 198.460938 C 159.09375 218.351562 151.191406 237.429688 137.128906 251.492188 C 123.0625 265.558594 103.984375 273.460938 84.09375 273.460938 L 75 273.460938 C 55.109375 273.460938 36.03125 265.558594 21.96875 251.492188 C 7.902344 237.429688 0 218.351562 0 198.460938 L 0 75 C 0 55.109375 7.902344 36.03125 21.96875 21.96875 C 36.03125 7.902344 55.109375 0 75 0 " clip-rule="nonzero"/></clipPath><clipPath id="291fd470bf"><path d="M 379.613281 302.0625 L 538.875 302.0625 L 538.875 810 L 379.613281 810 Z M 379.613281 302.0625 " clip-rule="nonzero"/></clipPath><clipPath id="e0a0f29e13"><path d="M 454.613281 302.0625 L 463.707031 302.0625 C 483.601562 302.0625 502.675781 309.964844 516.742188 324.027344 C 530.804688 338.09375 538.707031 357.171875 538.707031 377.0625 L 538.707031 735 C 538.707031 754.890625 530.804688 773.96875 516.742188 788.03125 C 502.675781 802.097656 483.601562 810 463.707031 810 L 454.613281 810 C 434.722656 810 415.648438 802.097656 401.582031 788.03125 C 387.515625 773.96875 379.613281 754.890625 379.613281 735 L 379.613281 377.0625 C 379.613281 357.171875 387.515625 338.09375 401.582031 324.027344 C 415.648438 309.964844 434.722656 302.0625 454.613281 302.0625 " clip-rule="nonzero"/></clipPath><clipPath id="f56a8f8d1b"><path d="M 189.808594 302.0625 L 349 302.0625 L 349 479 L 189.808594 479 Z M 189.808594 302.0625 " clip-rule="nonzero"/></clipPath><clipPath id="7243752d0f"><path d="M 264.808594 302.0625 L 273.902344 302.0625 C 293.792969 302.0625 312.867188 309.964844 326.933594 324.027344 C 341 338.09375 348.902344 357.171875 348.902344 377.0625 L 348.902344 403.800781 C 348.902344 423.691406 341 442.765625 326.933594 456.832031 C 312.867188 470.898438 293.792969 478.800781 273.902344 478.800781 L 264.808594 478.800781 C 244.914062 478.800781 225.839844 470.898438 211.773438 456.832031 C 197.707031 442.765625 189.808594 423.691406 189.808594 403.800781 L 189.808594 377.0625 C 189.808594 357.171875 197.707031 338.09375 211.773438 324.027344 C 225.839844 309.964844 244.914062 302.0625 264.808594 302.0625 " clip-rule="nonzero"/></clipPath></defs><g clip-path="url(#63d0295e97)"><g clip-path="url(#287bd05804)"><path fill="#1b8663" d="M 0 302.0625 L 159.261719 302.0625 L 159.261719 810 L 0 810 Z M 0 302.0625 " fill-opacity="1" fill-rule="nonzero"/></g></g><g clip-path="url(#d93a3f31e1)"><g clip-path="url(#080ab6e0d5)"><path fill="#64cfac" d="M 0 0 L 159.0625 0 L 159.0625 273.300781 L 0 273.300781 Z M 0 0 " fill-opacity="1" fill-rule="nonzero"/></g></g><g clip-path="url(#291fd470bf)"><g clip-path="url(#e0a0f29e13)"><path fill="#64cfac" d="M 379.613281 302.0625 L 538.875 302.0625 L 538.875 810 L 379.613281 810 Z M 379.613281 302.0625 " fill-opacity="1" fill-rule="nonzero"/></g></g><g clip-path="url(#f56a8f8d1b)"><g clip-path="url(#7243752d0f)"><path fill="#98ebd0" d="M 189.808594 302.0625 L 348.871094 302.0625 L 348.871094 478.476562 L 189.808594 478.476562 Z M 189.808594 302.0625 " fill-opacity="1" fill-rule="nonzero"/></g></g></svg>